HIERARCHY
ROOT Hips
{
 OFFSET 0.000000 0.000000 0.000000
 CHANNELS 6 Xposition Yposition Zposition Yrotation Xrotation Zrotation
 JOINT Chest
 {
  OFFSET 0.000000 11.395451 -0.039534
  CHANNELS 3 Yrotation Xrotation Zrotation
  JOINT Chest2
  {
   OFFSET 0.000000 9.398669 0.071813
   CHANNELS 3 Yrotation Xrotation Zrotation
   JOINT Chest3
   {
    OFFSET 0.000000 8.489801 0.000000
    CHANNELS 3 Yrotation Xrotation Zrotation
    JOINT Chest4
    {
     OFFSET 0.000000 8.489801 0.000000
     CHANNELS 3 Yrotation Xrotation Zrotation
     JOINT Neck
     {
      OFFSET 0.000000 12.404889 0.000000
      CHANNELS 3 Yrotation Xrotation Zrotation
      JOINT Head
      {
       OFFSET 0.000000 8.903270 0.092239
       CHANNELS 3 Yrotation Xrotation Zrotation
       End Site
       {
        OFFSET 0.000000 17.592497 0.007158
       }
      }
     }
     JOINT RightCollar
     {
      OFFSET -3.196775 6.966722 0.000000
      CHANNELS 3 Yrotation Xrotation Zrotation
      JOINT RightShoulder
      {
       OFFSET -15.955896 0.000000 0.000000
       CHANNELS 3 Yrotation Xrotation Zrotation
       JOINT RightElbow
       {
        OFFSET -24.792472 0.000000 0.000000
        CHANNELS 3 Yrotation Xrotation Zrotation
        JOINT RightWrist
        {
         OFFSET -20.900115 0.000000 0.025002
         CHANNELS 3 Yrotation Xrotation Zrotation
         End Site
         {
          OFFSET -16.056692 0.000000 0.000000
         }
        }
       }
      }
     }
     JOINT LeftCollar
     {
      OFFSET 3.196775 6.966722 0.000000
      CHANNELS 3 Yrotation Xrotation Zrotation
      JOINT LeftShoulder
      {
       OFFSET 15.955896 0.000000 0.000000
       CHANNELS 3 Yrotation Xrotation Zrotation
       JOINT LeftElbow
       {
        OFFSET 24.792472 0.000000 0.000000
        CHANNELS 3 Yrotation Xrotation Zrotation
        JOINT LeftWrist
        {
         OFFSET 20.900115 0.000000 0.025002
         CHANNELS 3 Yrotation Xrotation Zrotation
         End Site
         {
          OFFSET 16.056692 0.000000 0.000000
         }
        }
       }
      }
     }
    }
   }
  }
 }
 JOINT RightHip
 {
  OFFSET -9.568995 0.193718 0.019767
  CHANNELS 3 Yrotation Xrotation Zrotation
  JOINT RightKnee
  {
   OFFSET 0.000000 -56.649296 0.015402
   CHANNELS 3 Yrotation Xrotation Zrotation
   JOINT RightAnkle
   {
    OFFSET 0.000000 -41.365147 0.021264
    CHANNELS 3 Yrotation Xrotation Zrotation
    JOINT RightToe
    {
     OFFSET 0.000000 -7.465940 17.672538
     CHANNELS 3 Yrotation Xrotation Zrotation
     End Site
     {
      OFFSET 0.000000 -1.736315 7.837145
     }
    }
   }
  }
 }
 JOINT LeftHip
 {
  OFFSET 9.568995 0.193718 0.019767
  CHANNELS 3 Yrotation Xrotation Zrotation
  JOINT LeftKnee
  {
   OFFSET 0.000000 -56.649296 0.015402
   CHANNELS 3 Yrotation Xrotation Zrotation
   JOINT LeftAnkle
   {
    OFFSET 0.000000 -41.365147 0.021264
    CHANNELS 3 Yrotation Xrotation Zrotation
    JOINT LeftToe
    {
     OFFSET 0.000000 -7.465940 17.672538
     CHANNELS 3 Yrotation Xrotation Zrotation
     End Site
     {
      OFFSET 0.000000 -1.736315 7.837145
     }
    }
   }
  }
 }
}
MOTION
Frames: 15
Frame Time: 0.016667
-72.436728 106.036477 508.971111 -39.297655 -5.814811 -0.792799 -1.228311 5.525621 -0.052369 -0.544638 2.455964 -0.008606 -0.544638 2.455964 -0.008606 -0.408382 1.841982 -0.004264 1.235781 12.061634 -0.102118 2.406383 -13.773085 -0.723570 -2.412580 4.601294 7.415243 17.676005 -12.431706 77.225617 0.914735 -6.311391 -2.020935 -3.114825 -0.231135 2.934621 -5.198421 4.774168 -7.820289 -2.744216 -14.252977 -77.836482 -2.926878 -13.016811 0.781945 5.123836 -1.170204 -1.682017 11.714455 12.654607 4.913216 -0.227123 0.757900 -0.762771 -9.358648 -8.949488 -3.336157 -0.000000 0.000000 0.000000 12.537005 12.563999 2.136239 0.334016 5.530945 -0.170112 5.217091 -12.292625 0.546869 0.000000 0.000000 0.000000
-72.340843 106.040939 508.743742 -39.229002 -5.961885 -0.788671 -1.257480 5.515890 -0.056109 -0.557546 2.451652 -0.009946 -0.557546 2.451652 -0.009946 -0.418056 1.838750 -0.005220 1.244499 12.156611 -0.094402 2.417895 -13.596733 -0.710370 -2.431327 4.774497 7.405898 17.666280 -12.422477 77.280963 0.907324 -6.331278 -2.025708 -3.093252 -0.241938 2.892365 -5.109187 4.980675 -7.753957 -2.829392 -14.223617 -77.917393 -2.954566 -13.029346 0.793228 5.103190 -1.165805 -1.690743 11.654853 12.589216 5.079310 -0.261211 0.927068 -1.065994 -9.380425 -8.927162 -3.174200 0.000000 0.000000 0.000000 12.370123 12.498072 2.152492 0.443426 5.673685 -0.228890 5.191066 -12.273613 0.585926 0.000000 0.000000 0.000000
-72.244958 106.045400 508.516373 -39.160341 -6.108965 -0.784719 -1.286644 5.506155 -0.059931 -0.570450 2.447339 -0.011322 -0.570450 2.447339 -0.011322 -0.427727 1.835517 -0.006205 1.253213 12.251587 -0.086640 2.429398 -13.420385 -0.697084 -2.450123 4.947693 7.396451 17.656565 -12.413225 77.336303 0.899936 -6.351175 -2.030477 -3.071633 -0.252728 2.850126 -5.019931 5.187105 -7.687024 -2.914705 -14.194382 -77.998230 -2.982254 -13.041886 0.804514 5.082541 -1.161410 -1.699467 11.594563 12.523839 5.245101 -0.295515 1.096090 -1.369379 -9.402264 -8.904752 -3.012262 -0.000000 -0.000000 -0.000000 12.203087 12.432235 2.168411 0.552917 5.816472 -0.287208 5.165030 -12.254578 0.624955 -0.000000 -0.000000 -0.000000
-72.148690 106.051789 508.295008 -39.104857 -6.253232 -0.780151 -1.311062 5.497513 -0.063331 -0.581253 2.443511 -0.012566 -0.581253 2.443511 -0.012566 -0.435823 1.832647 -0.007098 1.260291 12.340727 -0.079155 2.438022 -13.254897 -0.683768 -2.468899 5.118328 7.386220 17.651387 -12.405388 77.389513 0.891722 -6.373274 -2.036553 -3.052260 -0.262692 2.812501 -4.935132 5.386637 -7.627624 -2.993154 -14.164156 -78.070995 -3.010363 -13.052376 0.811257 5.061464 -1.158275 -1.708882 11.544705 12.464409 5.392301 -0.323042 1.252453 -1.637860 -9.424156 -8.879672 -2.868581 0.000000 0.000000 0.000000 12.056991 12.373579 2.185721 0.650445 5.951465 -0.336729 5.147280 -12.236351 0.655923 0.000000 0.000000 0.000000
-72.052011 106.061167 508.082520 -39.070100 -6.394578 -0.773937 -1.327785 5.490579 -0.066404 -0.588643 2.440440 -0.013752 -0.588643 2.440440 -0.013752 -0.441360 1.830345 -0.007961 1.265206 12.422170 -0.072012 2.442825 -13.103734 -0.670372 -2.487790 5.285857 7.374796 17.652671 -12.400087 77.440624 0.881822 -6.399129 -2.045142 -3.036839 -0.271808 2.782115 -4.856562 5.576323 -7.579211 -3.060963 -14.131670 -78.131221 -3.039871 -13.060139 0.809513 5.039806 -1.157079 -1.720426 11.515531 12.415007 5.513542 -0.340579 1.390299 -1.856631 -9.449733 -8.850827 -2.749687 0.000000 0.000000 0.000000 11.944178 12.326756 2.206376 0.729191 6.076490 -0.373531 5.142625 -12.220798 0.673527 0.000000 -0.000000 0.000000
-71.954951 106.072472 507.876036 -39.048540 -6.533111 -0.766981 -1.339762 5.484740 -0.069004 -0.593931 2.437854 -0.014781 -0.593931 2.437854 -0.014781 -0.445322 1.828407 -0.008714 1.268472 12.497780 -0.065185 2.444745 -12.963427 -0.657027 -2.506675 5.450821 7.362571 17.658492 -12.396207 77.489607 0.871109 -6.427193 -2.055034 -3.023681 -0.280108 2.756339 -4.782485 5.759168 -7.538515 -3.121867 -14.098127 -78.183397 -3.069801 -13.065849 0.803227 5.017721 -1.157140 -1.732663 11.497119 12.371547 5.616378 -0.351135 1.515636 -2.040355 -9.475315 -8.819346 -2.649064 0.000000 0.000000 0.000000 11.852336 12.287087 2.228565 0.795913 6.193693 -0.401786 5.146263 -12.206079 0.683106 0.000000 0.000000 0.000000
-71.857216 106.084443 507.672947 -39.030745 -6.666341 -0.761370 -1.351105 5.479251 -0.070262 -0.598954 2.435420 -0.015221 -0.598954 2.435420 -0.015221 -0.449087 1.826582 -0.009026 1.270012 12.567315 -0.058875 2.443726 -12.834420 -0.644090 -2.525109 5.612296 7.350067 17.667611 -12.391831 77.534241 0.861323 -6.454998 -2.063915 -3.009999 -0.286863 2.731887 -4.712134 5.937298 -7.503659 -3.180122 -14.066104 -78.232948 -3.097645 -13.069478 0.799688 4.995237 -1.157670 -1.741972 11.470433 12.327746 5.704923 -0.356990 1.633754 -2.198154 -9.489902 -8.786029 -2.565365 0.000000 0.000000 -0.000000 11.765588 12.247659 2.248401 0.858932 6.301693 -0.425342 5.152077 -12.187478 0.692591 0.000000 0.000000 0.000000
-71.758047 106.096831 507.472656 -39.014052 -6.793122 -0.757557 -1.363229 5.474094 -0.069673 -0.604345 2.433128 -0.014832 -0.604345 2.433128 -0.014832 -0.453132 1.824863 -0.008715 1.269375 12.630260 -0.053374 2.439040 -12.717671 -0.631943 -2.542252 5.769047 7.337422 17.680922 -12.385750 77.573198 0.852505 -6.482356 -2.071316 -2.994539 -0.290786 2.707310 -4.645692 6.111063 -7.474865 -3.235939 -14.036554 -78.282511 -3.123558 -13.068933 0.802386 4.971186 -1.159400 -1.745867 11.422232 12.281777 5.776687 -0.356841 1.746292 -2.329203 -9.484687 -8.750619 -2.500882 -0.000000 0.000000 -0.000000 11.677335 12.206865 2.263093 0.922520 6.397908 -0.444351 5.158319 -12.162317 0.704344 0.000000 -0.000000 0.000000
-71.658205 106.109886 507.275760 -39.001115 -6.914599 -0.755065 -1.374730 5.469288 -0.067738 -0.609476 2.430988 -0.013852 -0.609476 2.430988 -0.013852 -0.456983 1.823257 -0.007962 1.267006 12.687130 -0.048415 2.431413 -12.612220 -0.620258 -2.558955 5.922308 7.324500 17.697531 -12.379177 77.607802 0.844606 -6.509451 -2.077703 -2.978567 -0.293161 2.684056 -4.583001 6.280142 -7.452036 -3.289091 -14.008509 -78.329454 -3.147383 -13.066310 0.807836 4.946738 -1.161602 -1.746829 11.365909 12.235524 5.834157 -0.351951 1.851565 -2.434339 -9.468466 -8.713433 -2.453271 -0.000000 0.000000 -0.000000 11.594220 12.166299 2.275487 0.982415 6.484904 -0.458712 5.166737 -12.133275 0.716011 0.000000 -0.000000 0.000000
-71.559675 106.123088 507.081437 -38.990461 -7.031717 -0.754633 -1.385494 5.464141 -0.065107 -0.614287 2.428694 -0.012572 -0.614287 2.428694 -0.012572 -0.460596 1.821535 -0.006985 1.264174 12.739227 -0.043357 2.422968 -12.515641 -0.608309 -2.577314 6.074857 7.311408 17.713522 -12.373825 77.639815 0.839228 -6.534370 -2.082173 -2.963072 -0.297105 2.663186 -4.522775 6.445641 -7.432769 -3.343169 -13.981694 -78.371294 -3.166142 -13.067864 0.812850 4.925426 -1.161303 -1.748689 11.322270 12.188271 5.888879 -0.348479 1.949860 -2.525211 -9.456652 -8.676132 -2.414236 0.000000 -0.000000 -0.000000 11.520223 12.123867 2.290120 1.034168 6.569020 -0.471858 5.176459 -12.103668 0.728443 0.000000 0.000000 0.000000
-71.462861 106.135896 506.889304 -38.981391 -7.142839 -0.756084 -1.395489 5.457490 -0.062327 -0.618759 2.425730 -0.011240 -0.618759 2.425730 -0.011240 -0.463956 1.819311 -0.005972 1.260915 12.786540 -0.037546 2.413501 -12.427969 -0.594870 -2.598708 6.227743 7.298230 17.726216 -12.370153 77.669940 0.838078 -6.555235 -2.083278 -2.948438 -0.304570 2.645785 -4.464255 6.607338 -7.416193 -3.400338 -13.956166 -78.406485 -3.176547 -13.077820 0.816038 4.910491 -1.155612 -1.753841 11.303008 12.138365 5.943574 -0.349579 2.038870 -2.602984 -9.457305 -8.637337 -2.381996 0.000000 0.000000 0.000000 11.458182 12.075875 2.308322 1.074471 6.654634 -0.485685 5.187108 -12.075672 0.742172 0.000000 0.000000 0.000000
-71.367359 106.148852 506.699745 -38.974593 -7.249602 -0.759581 -1.404749 5.450499 -0.058843 -0.622914 2.422614 -0.009606 -0.622914 2.422614 -0.009606 -0.467078 1.816973 -0.004733 1.257197 12.829081 -0.031636 2.403221 -12.349166 -0.581171 -2.621754 6.379914 7.284849 17.738291 -12.367700 77.697473 0.839432 -6.573912 -2.082468 -2.934279 -0.313601 2.630771 -4.408196 6.765459 -7.403238 -3.458403 -13.931861 -78.436584 -3.181885 -13.091955 0.818773 4.898689 -1.147414 -1.759893 11.296467 12.087398 5.995599 -0.352089 2.120951 -2.666456 -9.462364 -8.598416 -2.358353 -0.000000 0.000000 -0.000000 11.405246 12.026011 2.328829 1.106620 6.737365 -0.498387 5.199057 -12.047111 0.756671 0.000000 0.000000 0.000000
-71.273950 106.163064 506.513084 -38.970671 -7.357868 -0.766371 -1.413256 5.445978 -0.053651 -0.626753 2.420590 -0.007215 -0.626753 2.420590 -0.007215 -0.469966 1.815452 -0.002927 1.254197 12.868191 -0.026930 2.394877 -12.276694 -0.570144 -2.644394 6.531005 7.271078 17.753862 -12.366800 77.722059 0.839748 -6.594102 -2.083192 -2.920432 -0.321458 2.615964 -4.355566 6.921773 -7.394187 -3.514418 -13.908328 -78.463761 -3.189046 -13.103855 0.822026 4.883830 -1.142393 -1.763505 11.288364 12.039521 6.048444 -0.352705 2.203395 -2.723724 -9.463067 -8.565145 -2.340394 0.000000 0.000000 0.000000 11.356836 11.983272 2.352268 1.136077 6.810431 -0.507830 5.212549 -12.014772 0.771205 0.000000 -0.000000 0.000000
-71.182905 106.179662 506.329090 -38.970502 -7.468584 -0.778188 -1.420991 5.444647 -0.045821 -0.630280 2.419975 -0.003652 -0.630280 2.419975 -0.003652 -0.472625 1.814988 -0.000242 1.252598 12.903543 -0.023773 2.389914 -12.211144 -0.562728 -2.665847 6.680883 7.256807 17.775912 -12.367663 77.743489 0.837466 -6.617462 -2.087548 -2.906817 -0.326575 2.600559 -4.307572 7.077473 -7.389769 -3.567307 -13.885361 -78.488073 -3.201193 -13.110996 0.826545 4.861765 -1.144328 -1.761859 11.272761 11.994121 6.104270 -0.348712 2.290683 -2.777476 -9.456152 -8.542392 -2.327941 0.000000 -0.000000 0.000000 11.310113 11.950227 2.379255 1.165000 6.869598 -0.512481 5.229367 -11.976632 0.785293 0.000000 0.000000 0.000000
-71.093952 106.197515 506.147995 -38.973188 -7.580804 -0.793282 -1.427985 5.445789 -0.036281 -0.633496 2.420454 0.000669 -0.633496 2.420454 0.000669 -0.475054 1.815342 0.003012 1.251725 12.935463 -0.021809 2.386887 -12.151928 -0.557958 -2.686900 6.829680 7.242146 17.801458 -12.370079 77.761966 0.834152 -6.642342 -2.093433 -2.893518 -0.330522 2.585358 -4.263026 7.231372 -7.389340 -3.618137 -13.863153 -78.509464 -3.215164 -13.115901 0.831596 4.836648 -1.149446 -1.757771 11.255581 11.951843 6.160910 -0.342850 2.378325 -2.825025 -9.444886 -8.525292 -2.321154 0.000000 0.000000 0.000000 11.267904 11.924320 2.409169 1.191218 6.919099 -0.513901 5.247724 -11.934713 0.799427 0.000000 0.000000 0.000000
